PathFileType	4	(X/Y/Z)	C:\Users\86182\Documents\cortex\Trimmed_M4_H14.trc
DataRate	CameraRate	NumFrames	NumMarkers	Units	OrigDataRate	OrigDataStartFrame	OrigNumFrames
100.00	100.00	       140	2	mm	100.00	541	       901
Frame#	Time	gripper			box			
		X1	Y1	Z1	X2	Y2	Z2	

541	5.400	276.16443	151.12042	292.24615	278.34491	147.53127	155.75345	
542	5.410	276.16425	151.12057	292.24606	278.33124	147.53346	155.75989	
543	5.420	276.16553	151.12086	292.24481	278.32184	147.53511	155.76294	
544	5.430	276.16776	151.12123	292.24280	278.31735	147.53662	155.76262	
545	5.440	276.17029	151.12170	292.24045	278.31882	147.53758	155.75914	
546	5.450	276.17270	151.12224	292.23810	278.32645	147.53770	155.75304	
547	5.460	276.17471	151.12280	292.23596	278.33884	147.53726	155.74545	
548	5.470	276.17615	151.12323	292.23444	278.35379	147.53653	155.73778	
549	5.480	276.17688	151.12334	292.23376	278.36938	147.53545	155.73106	
550	5.490	276.17691	151.12305	292.23419	278.38406	147.53383	155.72592	
551	5.500	276.17633	151.12236	292.23553	278.39627	147.53204	155.72250	
552	5.510	276.17535	151.12143	292.23752	278.40500	147.53082	155.72047	
553	5.520	276.17432	151.12045	292.23962	278.41080	147.53035	155.71884	
554	5.530	276.17337	151.11963	292.24139	278.41541	147.53004	155.71652	
555	5.540	276.17270	151.11908	292.24265	278.42056	147.52925	155.71289	
556	5.550	276.17224	151.11882	292.24329	278.42636	147.52795	155.70836	
557	5.560	276.17191	151.11884	292.24347	278.43094	147.52667	155.70432	
558	5.570	276.17151	151.11902	292.24344	278.43213	147.52580	155.70226	
559	5.580	276.17084	151.11925	292.24353	278.42883	147.52538	155.70287	
560	5.590	276.16977	151.11943	292.24393	278.42120	147.52551	155.70622	
561	5.600	276.16837	151.11955	292.24469	278.41013	147.52652	155.71184	
562	5.610	276.16675	151.11964	292.24561	278.39716	147.52863	155.71881	
563	5.620	276.16531	151.11972	292.24643	278.38419	147.53159	155.72597	
564	5.630	276.16443	151.11984	292.24686	278.37350	147.53458	155.73199	
565	5.640	276.16449	151.12001	292.24655	278.36740	147.53670	155.73557	
566	5.650	276.16574	151.12027	292.24536	278.36722	147.53751	155.73595	
567	5.660	276.16785	151.12062	292.24353	278.37241	147.53717	155.73338	
568	5.670	276.17020	151.12103	292.24142	278.38071	147.53610	155.72922	
569	5.680	276.17215	151.12137	292.23965	278.38907	147.53484	155.72508	
570	5.690	276.17334	151.12146	292.23877	278.39481	147.53410	155.72237	
571	5.700	276.17346	151.12123	292.23895	278.39618	147.53452	155.72189	
572	5.710	276.17267	151.12073	292.24023	278.39224	147.53625	155.72403	
573	5.720	276.17114	151.12013	292.24207	278.38303	147.53912	155.72868	
574	5.730	276.16925	151.11964	292.24399	278.36978	147.54256	155.73512	
575	5.740	276.16736	151.11935	292.24564	278.35535	147.54587	155.74193	
576	5.750	276.16592	151.11929	292.24664	278.34302	147.54839	155.74753	
577	5.760	276.16534	151.11948	292.24677	278.33508	147.55000	155.75085	
578	5.770	276.16583	151.11986	292.24591	278.33203	147.55098	155.75159	
579	5.780	276.16733	151.12039	292.24417	278.33322	147.55153	155.74994	
580	5.790	276.16949	151.12106	292.24182	278.33832	147.55132	155.74622	
581	5.800	276.17181	151.12177	292.23932	278.34799	147.54944	155.74033	
582	5.810	276.17380	151.12241	292.23709	278.36292	147.54500	155.73224	
583	5.820	276.17520	151.12282	292.23560	278.38196	147.53769	155.72279	
584	5.830	276.17578	151.12289	292.23511	278.40234	147.52788	155.71350	
585	5.840	276.17560	151.12260	292.23566	278.42169	147.51659	155.70561	
586	5.850	276.17474	151.12201	292.23703	278.43839	147.50526	155.69980	
587	5.860	276.17349	151.12128	292.23892	278.45142	147.49542	155.69624	
588	5.870	276.17212	151.12057	292.24078	278.46008	147.48833	155.69487	
589	5.880	276.17105	151.12007	292.24219	278.46390	147.48489	155.69536	
590	5.890	276.17053	151.11984	292.24286	278.46295	147.48567	155.69719	
591	5.900	276.17059	151.11984	292.24280	278.45816	147.49037	155.69975	
592	5.910	276.17102	151.12007	292.24219	278.45059	147.49799	155.70267	
593	5.920	276.17142	151.12042	292.24142	278.44092	147.50735	155.70604	
594	5.930	276.17142	151.12082	292.24088	278.42920	147.51736	155.71037	
595	5.940	276.17081	151.12112	292.24081	278.41556	147.52704	155.71596	
596	5.950	276.16953	151.12131	292.24142	278.40054	147.53571	155.72253	
597	5.960	276.16776	151.12132	292.24255	278.38541	147.54291	155.72931	
598	5.970	276.16595	151.12115	292.24399	278.37186	147.54834	155.73535	
599	5.980	276.16464	151.12083	292.24530	278.36163	147.55199	155.73988	
600	5.990	276.16431	151.12038	292.24615	278.35617	147.55379	155.74236	
601	6.000	276.16498	151.11989	292.24640	278.35602	147.55363	155.74257	
602	6.010	276.16635	151.11943	292.24615	278.36038	147.55153	155.74089	
603	6.020	276.16791	151.11911	292.24561	278.36752	147.54782	155.73816	
604	6.030	276.16934	151.11891	292.24493	278.37552	147.54323	155.73524	
605	6.040	276.17047	151.11880	292.24438	278.38303	147.53868	155.73283	
606	6.050	276.17117	151.11874	292.24402	278.38916	147.53502	155.73125	
607	6.060	276.17145	151.11868	292.24390	278.39395	147.53239	155.73038	
608	6.070	276.17136	151.11865	292.24402	278.39780	147.53023	155.72983	
609	6.080	276.17099	151.11868	292.24420	278.40097	147.52806	155.72923	
610	6.090	276.17035	151.11884	292.24442	278.40271	147.52618	155.72865	
611	6.100	276.16953	151.11911	292.24454	278.40134	147.52531	155.72864	
612	6.110	276.16870	151.11952	292.24451	278.39532	147.52626	155.72998	
613	6.120	276.16812	151.12000	292.24420	278.38446	147.52950	155.73291	
614	6.130	276.16803	151.12047	292.24359	278.37036	147.53481	155.73689	
615	6.140	276.16861	151.12088	292.24261	278.35590	147.54105	155.74094	
616	6.150	276.16968	151.12128	292.24136	278.34406	147.54672	155.74408	
617	6.160	276.17084	151.12167	292.24005	278.33673	147.55063	155.74586	
618	6.170	276.17178	151.12206	292.23889	278.33438	147.55223	155.74626	
619	6.180	276.17239	151.12231	292.23816	278.33633	147.55168	155.74547	
620	6.190	276.17264	151.12241	292.23785	278.34122	147.54944	155.74384	
621	6.200	276.17261	151.12231	292.23798	278.34793	147.54584	155.74168	
622	6.210	276.17245	151.12215	292.23831	278.35632	147.54106	155.73894	
623	6.220	276.17252	151.12204	292.23843	278.36679	147.53543	155.73508	
624	6.230	276.17297	151.12213	292.23801	278.37976	147.52951	155.72971	
625	6.240	276.17386	151.12244	292.23700	278.39511	147.52377	155.72299	
626	6.250	276.17496	151.12286	292.23569	278.41162	147.51842	155.71585	
627	6.260	276.17596	151.12326	292.23450	278.42679	147.51361	155.70969	
628	6.270	276.17667	151.12344	292.23373	278.43771	147.50990	155.70581	
629	6.280	276.17694	151.12335	292.23370	278.44229	147.50810	155.70477	
630	6.290	276.17670	151.12294	292.23444	278.43994	147.50874	155.70656	
631	6.300	276.17603	151.12228	292.23581	278.43121	147.51175	155.71072	
632	6.310	276.17505	151.12155	292.23749	278.41748	147.51649	155.71674	
633	6.320	276.17386	151.12086	292.23926	278.40045	147.52220	155.72404	
634	6.330	276.17245	151.12030	292.24094	278.38190	147.52831	155.73209	
635	6.340	276.17087	151.11992	292.24249	278.36371	147.53439	155.74001	
636	6.350	276.16916	151.11974	292.24390	278.34827	147.53979	155.74661	
637	6.360	276.16748	151.11977	292.24493	278.33777	147.54366	155.75092	
638	6.370	276.16617	151.12004	292.24542	278.33313	147.54565	155.75261	
639	6.380	276.16544	151.12048	292.24527	278.33356	147.54614	155.75203	
640	6.390	276.16553	151.12105	292.24442	278.33792	147.54562	155.74968	
641	6.400	276.16647	151.12169	292.24289	278.34558	147.54436	155.74580	
642	6.410	276.16827	151.12231	292.24084	278.35623	147.54259	155.74048	
643	6.420	276.17056	151.12289	292.23853	278.36896	147.54036	155.73407	
644	6.430	276.17285	151.12337	292.23639	278.38217	147.53752	155.72740	
645	6.440	276.17474	151.12363	292.23480	278.39404	147.53409	155.72159	
646	6.450	276.17596	151.12360	292.23401	278.40271	147.53047	155.71765	
647	6.460	276.17651	151.12325	292.23416	278.40735	147.52719	155.71614	
648	6.470	276.17642	151.12263	292.23508	278.40833	147.52452	155.71698	
649	6.480	276.17590	151.12186	292.23651	278.40652	147.52254	155.71976	
650	6.490	276.17514	151.12106	292.23813	278.40298	147.52136	155.72369	
651	6.500	276.17429	151.12036	292.23969	278.39871	147.52104	155.72771	
652	6.510	276.17343	151.11984	292.24097	278.39453	147.52135	155.73091	
653	6.520	276.17252	151.11957	292.24194	278.39053	147.52196	155.73314	
654	6.530	276.17154	151.11955	292.24261	278.38635	147.52278	155.73479	
655	6.540	276.17038	151.11978	292.24304	278.38147	147.52396	155.73636	
656	6.550	276.16898	151.12013	292.24344	278.37592	147.52554	155.73801	
657	6.560	276.16739	151.12056	292.24390	278.37027	147.52725	155.73950	
658	6.570	276.16592	151.12099	292.24423	278.36539	147.52864	155.74059	
659	6.580	276.16516	151.12135	292.24420	278.36246	147.52933	155.74094	
660	6.590	276.16556	151.12164	292.24353	278.36322	147.52890	155.74013	
661	6.600	276.16696	151.12180	292.24237	278.36917	147.52710	155.73776	
662	6.610	276.16885	151.12183	292.24115	278.37958	147.52408	155.73410	
663	6.620	276.17056	151.12170	292.24017	278.39209	147.52010	155.72992	
664	6.630	276.17184	151.12144	292.23975	278.40448	147.51523	155.72592	
665	6.640	276.17258	151.12112	292.23975	278.41556	147.50970	155.72243	
666	6.650	276.17294	151.12080	292.23993	278.42465	147.50436	155.71947	
667	6.660	276.17322	151.12059	292.24008	278.43115	147.50040	155.71709	
668	6.670	276.17349	151.12051	292.23999	278.43469	147.49847	155.71533	
669	6.680	276.17389	151.12062	292.23956	278.43509	147.49860	155.71437	
670	6.690	276.17438	151.12091	292.23886	278.43225	147.50066	155.71445	
671	6.700	276.17480	151.12132	292.23798	278.42603	147.50455	155.71587	
672	6.710	276.17505	151.12180	292.23712	278.41678	147.50989	155.71872	
673	6.720	276.17502	151.12233	292.23639	278.40540	147.51607	155.72273	
674	6.730	276.17471	151.12296	292.23569	278.39279	147.52237	155.72746	
675	6.740	276.17407	151.12361	292.23517	278.37958	147.52817	155.73262	
676	6.750	276.17294	151.12415	292.23514	278.36594	147.53299	155.73811	
677	6.760	276.17142	151.12440	292.23575	278.35245	147.53661	155.74368	
678	6.770	276.16968	151.12430	292.23703	278.34082	147.53885	155.74854	
679	6.780	276.16809	151.12387	292.23865	278.33279	147.53973	155.75168	
680	6.790	276.16693	151.12318	292.24039	278.32874	147.53993	155.75270	
